<svg xmlns="http://www.w3.org/2000/svg" width="97" height="25" fill="none"><path fill="#fff" d="M20.852 25v-4.86H5.84v-4.86h14.472v-4.824H5.84V5.74h15.012V.88H.44V25h20.412Zm7.84 0V.88h-5.4V25h5.4Zm8.226-19.872V.88h-5.4v4.248h5.4Zm0 19.872V6.964h-5.4V25h5.4Zm7.759 0 4.644-6.048h.288L54.397 25h6.588l-7.2-8.892v-.324l7.2-8.82h-6.516l-4.644 6.084h-.288l-4.788-6.084H38.16l7.2 8.928v.288L38.16 25h6.516ZM67.68 5.128V.88h-5.4v4.248h5.4Zm0 19.872V6.964h-5.4V25h5.4Zm8.226 0V14.56c0-2.268.864-3.384 3.276-3.384 2.196 0 2.988.864 2.988 2.844v1.872h5.4v-2.988c0-3.528-1.656-6.3-5.688-6.3-3.636 0-5.544 2.232-6.048 5.148h-.324V6.964h-5.004V25h5.4Z"/><path fill="#375EC1" d="M96.114 25v-6.3h-6.948V25h6.948Z"/></svg>